<svg width="36" height="36" viewBox="0 0 36 36" fill="currentColor" xmlns="http://www.w3.org/2000/svg">
<path d="M18.0003 0C8.06015 0 -0.000152588 8.05938 -0.000152588 18.0005C-0.000152588 25.3712 4.432 31.7026 10.7745 34.4866C10.7237 33.2298 10.7648 31.7202 11.0878 30.3545C11.434 28.8923 13.4038 20.5458 13.4038 20.5458C13.4038 20.5458 12.8288 19.3966 12.8288 17.6982C12.8288 15.0309 14.3749 13.0375 16.2995 13.0375C17.9366 13.0375 18.7277 14.2671 18.7277 15.7398C18.7277 17.3857 17.6786 19.8457 17.1386 22.1275C16.6872 24.0378 18.0963 25.5946 19.9798 25.5946C23.3902 25.5946 25.6868 21.2146 25.6868 16.0242C25.6868 12.0803 23.0302 9.12739 18.1974 9.12739C12.7369 9.12739 9.33539 13.1991 9.33539 17.7471C9.33539 19.3163 9.79785 20.4217 10.5225 21.2769C10.8552 21.6706 10.9014 21.8289 10.7809 22.2812C10.6946 22.6122 10.4962 23.4092 10.4145 23.7254C10.2949 24.1814 9.92569 24.3438 9.51308 24.1758C6.99816 23.1489 5.82677 20.3949 5.82677 17.2989C5.82677 12.1851 10.1389 6.05446 18.6912 6.05446C25.564 6.05446 30.0871 11.0275 30.0871 16.3671C30.0871 23.4272 26.1612 28.7026 20.3745 28.7026C18.4318 28.7026 16.6037 27.6517 15.9774 26.4591C15.9774 26.4591 14.9325 30.6055 14.7114 31.4077C14.3297 32.7955 13.5825 34.1829 12.8994 35.2634C14.5556 35.7531 16.2737 36.0018 18.0008 36.0018C27.9405 36.0009 35.9998 27.9411 35.9998 18.0005C35.9998 8.05938 27.9405 0 18.0003 0Z"/>
</svg>
