<svg width="36" height="36" viewBox="0 0 36 36" fill="currentColor" xmlns="http://www.w3.org/2000/svg">
<path fill-rule="evenodd" clip-rule="evenodd" d="M32.2158 6.96191C34.674 10.1157 36.0061 14.0014 35.9999 18.0001C35.9999 27.9397 27.9396 36 18.0004 36C11.0067 36 4.9435 32.0096 1.96381 26.1827H9.80903C13.5475 26.1827 16.1589 24.1676 16.1589 20.9465C16.1589 14.1199 8.28365 16.9011 8.28365 14.4785C8.28365 13.3113 9.22011 12.8867 10.9338 12.8867H16.3938C17.9072 12.8867 19.6873 13.1581 19.6873 14.8094V20.2496C19.6873 24.1888 22.7635 26.1822 25.9518 26.1822C29.1945 26.1822 32.2153 24.1888 32.2153 20.2496V6.96191H32.2158Z"/>
<path fill-rule="evenodd" clip-rule="evenodd" d="M18.0003 1.75134e-05C21.6124 -0.00503185 25.1417 1.08188 28.1251 3.11817V20.3769C28.1251 21.5732 27.1466 22.5522 25.9521 22.5522C24.7563 22.5522 23.7788 21.5732 23.7788 20.3769V15.2054C23.7788 11.0769 21.6894 9.35955 18.9681 9.35955H10.1117C6.90539 9.35955 4.24554 11.4005 4.24554 14.6368C4.24554 16.2928 4.95493 18.7195 8.30985 19.3214C11.0426 19.8134 12.1212 19.6703 12.1212 21.1325C12.1212 22.5522 10.5308 22.5522 8.43123 22.5522H0.581853C0.194124 21.0659 -0.00147019 19.536 -0.000145908 18C-0.000145908 8.06263 8.06108 1.75134e-05 18.0003 1.75134e-05Z"/>
</svg>
