<svg width="36" height="36" viewBox="0 0 36 36" fill="currentColor" xmlns="http://www.w3.org/2000/svg">
<g clip-path="url(#clip0_13_57)">
<path d="M35.9999 18C35.9999 22.7739 34.1035 27.3523 30.7278 30.7279C27.3521 34.1036 22.7738 36 17.9999 36C13.226 36 8.64761 34.1036 5.27196 30.7279C1.8963 27.3523 -0.00012207 22.7739 -0.00012207 18C-0.00012207 13.2261 1.8963 8.64773 5.27196 5.27208C8.64761 1.89642 13.226 0 17.9999 0C22.7738 0 27.3521 1.89642 30.7278 5.27208C34.1035 8.64773 35.9999 13.2261 35.9999 18ZM18.6456 13.2885C16.8951 14.0175 13.3941 15.525 8.14713 17.811C7.29663 18.1485 6.84888 18.4815 6.80838 18.8055C6.74088 19.3522 7.42713 19.5683 8.36088 19.863L8.75463 19.9868C9.67263 20.286 10.9101 20.6348 11.5514 20.6483C12.1364 20.6618 12.7866 20.4233 13.5044 19.9283C18.4071 16.6185 20.9384 14.9467 21.0959 14.9107C21.2084 14.8837 21.3659 14.8523 21.4694 14.9468C21.5751 15.039 21.5639 15.2168 21.5526 15.264C21.4851 15.5542 18.7919 18.0562 17.3991 19.3522C16.9649 19.7572 16.6566 20.043 16.5936 20.1082C16.4549 20.25 16.3139 20.3895 16.1706 20.5268C15.3156 21.3503 14.6766 21.9668 16.2044 22.9748C16.9401 23.4608 17.5296 23.859 18.1169 24.2595C18.7559 24.696 19.3949 25.1303 20.2229 25.6748C20.4321 25.8098 20.6346 25.956 20.8304 26.0955C21.5751 26.6265 22.2479 27.1035 23.0736 27.027C23.5551 26.982 24.0524 26.532 24.3044 25.182C24.9006 21.9938 26.0729 15.0885 26.3429 12.2423C26.3594 12.0056 26.3495 11.7679 26.3136 11.5335C26.2924 11.3443 26.2009 11.17 26.0571 11.0452C25.8524 10.9039 25.6083 10.8307 25.3596 10.836C24.6846 10.8472 23.6429 11.2095 18.6456 13.2885Z"/>
</g>
<defs>
<clipPath id="clip0_13_57">
<rect width="36" height="36" fill="white"/>
</clipPath>
</defs>
</svg>
